HIERARCHY
ROOT Hips
{
    OFFSET 0.000000 0.000000 0.000000
    CHANNELS 6 Xposition Yposition Zposition Zrotation Xrotation Yrotation
    JOINT Spine
    {
        OFFSET -0.000000 0.081343 0.000000
        CHANNELS 3 Zrotation Xrotation Yrotation
        JOINT Spine1
        {
            OFFSET -0.000000 0.243280 0.000000
            CHANNELS 3 Zrotation Xrotation Yrotation
            JOINT Neck
            {
                OFFSET -0.000000 0.242281 0.022026
                CHANNELS 3 Zrotation Xrotation Yrotation
                JOINT Head
                {
                    OFFSET -0.000000 0.149025 -0.021289
                    CHANNELS 3 Zrotation Xrotation Yrotation
                    End Site
                    {
                        OFFSET -0.000000 0.198396 0.000000
                    }
                }
            }
            JOINT LeftShoulder
            {
                OFFSET 0.039707 0.224479 -0.002125
                CHANNELS 3 Zrotation Xrotation Yrotation
                JOINT LeftArm
                {
                    OFFSET 0.116942 0.000000 0.000000
                    CHANNELS 3 Zrotation Xrotation Yrotation
                    JOINT LeftForeArm
                    {
                        OFFSET 0.282002 0.000000 0.000000
                        CHANNELS 3 Zrotation Xrotation Yrotation
                        JOINT LeftHand
                        {
                            OFFSET 0.358743 0.000000 0.000000
                            CHANNELS 3 Zrotation Xrotation Yrotation
                            End Site
                            {
                                OFFSET 0.148797 0.000000 0.000000
                            }
                        }
                    }
                }
            }
            JOINT RightShoulder
            {
                OFFSET -0.039404 0.224479 -0.002125
                CHANNELS 3 Zrotation Xrotation Yrotation
                JOINT RightArm
                {
                    OFFSET -0.116942 0.000000 0.000000
                    CHANNELS 3 Zrotation Xrotation Yrotation
                    JOINT RightForeArm
                    {
                        OFFSET -0.282002 0.000000 0.000000
                        CHANNELS 3 Zrotation Xrotation Yrotation
                        JOINT RightHand
                        {
                            OFFSET -0.358743 0.000000 0.000000
                            CHANNELS 3 Zrotation Xrotation Yrotation
                            End Site
                            {
                                OFFSET -0.148797 0.000000 0.000000
                            }
                        }
                    }
                }
            }
        }
    }
    JOINT LeftUpLeg
    {
        OFFSET 0.099198 0.000000 0.000000
        CHANNELS 3 Zrotation Xrotation Yrotation
        JOINT LeftLeg
        {
            OFFSET -0.000000 -0.332973 0.000000
            CHANNELS 3 Zrotation Xrotation Yrotation
            JOINT LeftFoot
            {
                OFFSET -0.000000 -0.491254 0.000000
                CHANNELS 3 Zrotation Xrotation Yrotation
                JOINT LeftToeBase
                {
                    OFFSET -0.000000 -0.064479 0.148797
                    CHANNELS 3 Zrotation Xrotation Yrotation
                    End Site
                    {
                        OFFSET -0.000000 0.000000 0.039679
                    }
                }
            }
        }
    }
    JOINT RightUpLeg
    {
        OFFSET -0.099198 0.000000 0.000000
        CHANNELS 3 Zrotation Xrotation Yrotation
        JOINT RightLeg
        {
            OFFSET -0.000000 -0.332973 0.000000
            CHANNELS 3 Zrotation Xrotation Yrotation
            JOINT RightFoot
            {
                OFFSET -0.000000 -0.491254 0.000000
                CHANNELS 3 Zrotation Xrotation Yrotation
                JOINT RightToeBase
                {
                    OFFSET -0.000000 -0.064479 0.148797
                    CHANNELS 3 Zrotation Xrotation Yrotation
                    End Site
                    {
                        OFFSET -0.000000 0.000000 0.039679
                    }
                }
            }
        }
    }
}
MOTION
Frames:    9
Frame Time:    0.010000
-0.403556    0.866038    0.079644    -2.240832    2.749269    -38.319946    -2.574405    1.459191    1.619407    1.153450    6.702807    0.463554    5.357497    21.178377    8.324377    -10.850881    -5.965430    6.824784    -10.929056    18.230673    11.546911    -51.019028    -12.209317    -15.872906    35.627007    -51.390099    -105.907349    61.605030    -7.219325    1.287339    5.613767    16.514915    5.600008    41.823437    14.658894    16.558889    -94.516693    -48.496967    20.556240    -33.726807    -28.776575    -9.067977    19.529837    -17.328751    8.992989    -5.774819    27.420528    -6.398620    2.276419    -10.323488    18.533943    0.000000    0.000000    0.000000    -12.333338    -18.066448    -5.660395    0.000000    0.000000    0.000000    0.000000    0.000000    0.000000    0.000000    0.000000    0.000000    
-0.408790    0.864269    0.076971    -2.258297    2.592312    -38.045036    -2.683964    1.596494    1.565873    1.240909    6.592892    0.440416    5.172355    21.508436    8.209330    -10.514997    -6.460541    6.733279    -10.973283    18.391174    11.339825    -50.694038    -11.701711    -15.904446    36.762676    -51.964931    -104.790352    61.625462    -7.252960    1.437396    5.590647    16.299858    5.649111    41.673252    14.796724    16.432661    -95.203903    -47.540375    19.818466    -32.199188    -28.367912    -8.207707    20.188053    -17.233667    8.889027    -6.425140    27.513866    -7.036733    2.438257    -10.279892    18.864790    0.000000    0.000000    0.000000    -12.174106    -18.133753    -6.883039    0.000000    0.000000    0.000000    0.000000    0.000000    0.000000    0.000000    0.000000    0.000000    
-0.414280    0.862527    0.073939    -2.319513    2.434404    -37.748150    -2.780593    1.796785    1.517083    1.298155    6.406578    0.421052    5.187491    21.731346    8.243848    -10.404505    -6.617566    6.789341    -10.874135    18.587955    11.119012    -50.626179    -11.782443    -15.934224    36.547871    -51.926811    -105.021774    61.365017    -7.414748    1.280867    5.632220    16.008865    5.757608    41.609718    15.114388    16.141863    -95.839478    -47.105389    19.177057    -32.457359    -28.116116    -8.643902    20.651802    -17.386078    9.193041    -6.330216    27.914661    -7.412657    1.532215    -10.243673    18.644224    0.000000    0.000000    0.000000    -10.267894    -17.034742    -7.534688    7.599767    3.331433    -63.828785    0.000000    0.000000    0.000000    0.000000    0.000000    0.000000    
-0.420146    0.860566    0.072663    -2.331487    1.940343    -37.600719    -2.948808    1.885743    1.588463    1.157194    6.639366    0.448844    5.143622    21.937513    8.255198    -10.230341    -6.905774    6.818834    -10.833058    18.571383    10.974006    -50.443333    -11.937068    -15.895504    36.238445    -51.631451    -105.343590    61.447735    -7.268072    1.057936    5.750317    15.722221    5.794847    41.518082    14.957899    15.919222    -95.313293    -47.538620    19.935078    -33.734177    -28.066423    -8.336123    20.483700    -17.245651    9.788874    -5.449221    28.497427    -7.586439    1.030269    -10.530588    17.543978    0.000000    0.000000    0.000000    -11.915102    -18.037283    -9.113826    7.599767    3.331433    -63.828785    0.000000    0.000000    0.000000    0.000000    0.000000    0.000000    
-0.425087    0.858768    0.067589    -2.403778    2.082714    -37.199291    -2.895640    2.177113    1.512602    1.303503    6.288166    0.416952    4.995453    22.053736    8.270207    -10.111305    -7.189384    6.831681    -10.832297    18.435463    10.733757    -50.200085    -11.424784    -15.752097    36.834934    -52.015110    -104.720749    61.560909    -7.464281    1.131775    5.724223    15.626824    5.742700    41.567097    14.277627    15.905334    -94.630386    -47.553158    20.844934    -33.056343    -27.426958    -8.376807    21.482773    -17.820097    9.726409    -6.105229    29.010319    -8.241701    0.748540    -10.598536    18.735905    0.000000    0.000000    0.000000    -10.040188    -17.332109    -8.357121    7.943208    4.720917    -62.421196    0.000000    0.000000    0.000000    0.000000    0.000000    0.000000    
-0.430505    0.857056    0.064106    -2.525640    1.969223    -36.928188    -2.823917    2.345719    1.522812    1.249688    6.417974    0.420955    4.994843    21.842495    8.329980    -10.109290    -7.125634    6.889564    -10.809545    18.263802    10.657584    -50.114662    -11.529486    -15.752790    36.557709    -51.677803    -105.020950    61.949646    -7.231234    0.875549    5.828098    15.549577    5.616463    41.493114    13.715479    16.020395    -93.571632    -47.988186    22.115440    -31.866009    -27.225922    -8.183137    21.921272    -18.171122    10.017716    -5.749371    29.683704    -8.355408    0.477351    -10.202901    17.482819    0.000000    0.000000    0.000000    -9.416123    -17.974424    -10.164510    7.213261    6.254350    -60.540199    0.000000    0.000000    0.000000    0.000000    0.000000    0.000000    
-0.435659    0.855566    0.060683    -2.654296    1.920917    -36.672897    -2.618387    2.422782    1.521495    1.040972    6.645360    0.430671    5.114333    21.515402    8.414370    -10.148653    -6.891220    6.979925    -10.721557    18.170336    10.553201    -50.176754    -11.280923    -15.724555    36.687897    -51.854305    -104.952492    61.365696    -7.364220    0.877199    6.006406    15.415125    5.562322    41.341614    12.976560    16.088169    -92.363388    -48.390484    23.587057    -32.878956    -26.843794    -7.520775    22.514296    -18.278168    9.913509    -5.949658    29.904638    -8.762516    0.291080    -10.164663    17.842043    0.000000    0.000000    0.000000    -9.672809    -18.019098    -8.348354    9.150305    6.923402    -52.139229    0.000000    0.000000    0.000000    0.000000    0.000000    0.000000    
-0.441112    0.854311    0.057273    -2.926423    1.954868    -36.429901    -2.260943    2.436221    1.483220    0.775957    6.956960    0.433276    5.451598    21.245983    8.539336    -10.428920    -6.648163    7.078295    -10.498544    18.058371    10.505243    -50.430561    -11.374640    -15.720660    36.348450    -51.577663    -105.443001    61.961586    -7.223473    0.469485    6.209028    15.415185    5.607323    41.115215    12.792474    16.258617    -91.852066    -48.535141    23.989883    -31.237808    -26.994215    -7.317038    23.136896    -18.600618    10.122469    -5.664791    30.475170    -8.976460    0.591343    -9.430887    17.363050    0.000000    0.000000    0.000000    -8.949621    -18.555038    -9.305509    8.678209    8.183327    -51.432438    0.000000    0.000000    0.000000    0.000000    0.000000    0.000000    
-0.446593    0.853175    0.054040    -3.280932    2.009056    -36.217995    -1.777144    2.422535    1.337749    0.603663    7.370314    0.396150    5.256731    20.893824    8.827759    -10.327013    -6.402243    7.393914    -10.686978    18.326162    10.648065    -50.571415    -11.601088    -15.986867    36.276016    -51.547863    -105.566246    61.924740    -7.224026    0.379225    6.021703    15.561801    5.886696    40.923931    12.479392    16.655210    -91.943413    -47.897667    23.873167    -33.754066    -25.909605    -7.876331    24.125992    -18.960953    10.246274    -5.915023    31.239632    -5.632347    -0.240223    -9.469296    13.811232    0.000000    0.000000    0.000000    -10.040242    -20.558235    -9.691081    8.678209    8.183327    -51.432438    0.000000    0.000000    0.000000    0.000000    0.000000    0.000000    
